<?xml version="1.0" encoding="utf-8"?>
<!-- Generated by IcoMoon.io -->
<!DOCTYPE svg PUBLIC "-//W3C//DTD SVG 1.1//EN" "http://www.w3.org/Graphics/SVG/1.1/DTD/svg11.dtd">
<svg version="1.1" xmlns="http://www.w3.org/2000/svg" xmlns:xlink="http://www.w3.org/1999/xlink" width="33" height="32" viewBox="0 0 33 32">
<path fill="#444444" d="M13.050 19.394v9.51h7.077v-10.588h-7.077v1.078zM18.828 27.604h-4.479v-7.989h4.479v7.989z"></path>
<path fill="#444444" d="M32.122 17.445l0.918-0.919-4.383-4.385v-11.934h-6.11v5.822l-6.027-6.030-16.52 16.527 0.919 0.919 3.464-3.464v16.719h-1.742v1.3h28.253v-1.3h-2.238v-16.72l3.465 3.464zM23.847 1.507h3.511v9.335l-3.511-3.512v-5.823zM27.358 30.7h-21.676v-18.019l10.838-10.838 10.838 10.838v18.019z"></path>
<path fill="#444444" d="M13.161 12.036c0 1.893 1.535 3.428 3.428 3.428s3.428-1.535 3.428-3.428-1.535-3.428-3.428-3.428-3.428 1.535-3.428 3.428zM16.588 9.838c1.214 0 2.198 0.984 2.198 2.198s-0.984 2.198-2.198 2.198c-1.214 0-2.198-0.984-2.198-2.198s0.985-2.198 2.198-2.198z"></path>
<path fill="#444444" d="M7.479 18.315h1.327v1.742h-1.327v-1.742z"></path>
<path fill="#444444" d="M10.105 18.315h1.327v1.742h-1.327v-1.742z"></path>
<path fill="#444444" d="M7.479 20.969h1.327v1.742h-1.327v-1.742z"></path>
<path fill="#444444" d="M10.105 20.969h1.327v1.742h-1.327v-1.742z"></path>
<path fill="#444444" d="M21.606 18.315h1.327v1.742h-1.327v-1.742z"></path>
<path fill="#444444" d="M24.232 18.315h1.327v1.742h-1.327v-1.742z"></path>
<path fill="#444444" d="M21.606 20.969h1.327v1.742h-1.327v-1.742z"></path>
<path fill="#444444" d="M24.232 20.969h1.327v1.742h-1.327v-1.742z"></path>
</svg>
