<?xml version="1.0" encoding="utf-8"?>
<!-- Generated by IcoMoon.io -->
<!DOCTYPE svg PUBLIC "-//W3C//DTD SVG 1.1//EN" "http://www.w3.org/Graphics/SVG/1.1/DTD/svg11.dtd">
<svg version="1.1" xmlns="http://www.w3.org/2000/svg" xmlns:xlink="http://www.w3.org/1999/xlink" width="29" height="32" viewBox="0 0 29 32">
<path fill="#444444" d="M24.88 2.92h-3.038v-2.92h-2.92v2.92h-8.822v-2.92h-2.92v2.92h-3.040c-2.278 0-4.139 1.862-4.139 4.139v20.801c0 2.278 1.862 4.139 4.139 4.139h20.741c2.278 0 4.139-1.862 4.139-4.139v-20.801c0-2.278-1.862-4.139-4.139-4.139zM26.1 27.861c0 0.661-0.559 1.219-1.219 1.219h-20.741c-0.66 0-1.219-0.558-1.219-1.219v-20.801c0-0.661 0.559-1.219 1.219-1.219h20.741c0.66 0 1.219 0.558 1.219 1.219v20.801z"></path>
<path fill="#444444" d="M7.179 10.16h2.92v2.92h-2.92v-2.92z"></path>
<path fill="#444444" d="M18.922 10.16h2.92v2.92h-2.92v-2.92z"></path>
<path fill="#444444" d="M13.051 10.16h2.92v2.92h-2.92v-2.92z"></path>
<path fill="#444444" d="M7.179 16h2.92v2.92h-2.92v-2.92z"></path>
<path fill="#444444" d="M18.922 16h2.92v2.92h-2.92v-2.92z"></path>
<path fill="#444444" d="M13.051 16h2.92v2.92h-2.92v-2.92z"></path>
<path fill="#444444" d="M7.179 21.817h2.92v2.92h-2.92v-2.92z"></path>
<path fill="#444444" d="M18.922 21.817h2.92v2.92h-2.92v-2.92z"></path>
<path fill="#444444" d="M13.051 21.817h2.92v2.92h-2.92v-2.92z"></path>
</svg>
