<?xml version="1.0" encoding="utf-8"?>
<!-- Generated by IcoMoon.io -->
<!DOCTYPE svg PUBLIC "-//W3C//DTD SVG 1.1//EN" "http://www.w3.org/Graphics/SVG/1.1/DTD/svg11.dtd">
<svg version="1.1" xmlns="http://www.w3.org/2000/svg" xmlns:xlink="http://www.w3.org/1999/xlink" width="27" height="32" viewBox="0 0 27 32">
<path fill="#444444" d="M25.642 9.474h-10.402c5.797-2.904 6.26-4.737 6.047-5.762-0.488-1.669-2.389-2.957-4.198-2.276-2.337 0.879-2.995 4.374-3.628 6.9-0.807-2.556-1.588-5.817-3.414-7.469-0.529-0.479-1.299-0.953-2.419-0.854-1.69 0.15-4.114 2.266-3.13 4.624 0.945 2.264 4.065 3.695 6.118 4.837h-9.407c-0.664 0-1.208 0.544-1.208 1.208v4.767c0 0.664 0.543 1.208 1.208 1.208h0.115v15.342h24.275v-15.342h0.044c0.665 0 1.208-0.543 1.208-1.208v-4.767c-0-0.664-0.544-1.208-1.209-1.208zM17.8 2.503c0.882-0.13 2.091 0.547 2.206 1.351 0.165 1.16-1.427 2.213-2.134 2.703-1.059 0.734-2.068 1.113-3.059 1.707 0.372-1.553 1.070-5.478 2.988-5.762zM8.196 6.7c-0.933-0.625-2.746-1.866-2.703-3.272 0.047-1.514 2.41-2.766 3.699-1.636 1.618 1.42 2.397 4.676 2.988 6.971-1.363-0.647-2.655-1.173-3.984-2.063zM10.703 30.748h-8.128v-14.091h8.128v14.091zM10.703 15.379h-9.425v-4.626h9.425v4.626zM14.966 15.379v15.369h-3.010v-19.995h3.010v4.626zM24.346 30.748h-8.128v-14.091h8.128v14.091zM25.571 15.379h-9.354v-4.626h9.354v4.626z"></path>
</svg>
