<?xml version="1.0" encoding="utf-8"?>
<!-- Generated by IcoMoon.io -->
<!DOCTYPE svg PUBLIC "-//W3C//DTD SVG 1.1//EN" "http://www.w3.org/Graphics/SVG/1.1/DTD/svg11.dtd">
<svg version="1.1" xmlns="http://www.w3.org/2000/svg" xmlns:xlink="http://www.w3.org/1999/xlink" width="35" height="32" viewBox="0 0 35 32">
<path fill="#444444" d="M33.371 21.366h-31.398c-1.085 0-1.973 0.888-1.973 1.973v1.603c0 1.085 0.888 1.973 1.973 1.973h0.444v0.481c0 2.532 2.071 4.604 4.604 4.604h21.303c2.532 0 4.604-2.072 4.604-4.604v-0.481h0.444c1.085 0 1.973-0.888 1.973-1.973v-1.603c0-1.085-0.888-1.973-1.973-1.973zM31.535 27.396c0 1.771-1.44 3.212-3.212 3.212h-21.303c-1.771 0-3.212-1.441-3.212-3.212v-0.481h27.727v0.481zM33.952 24.941c0 0.315-0.266 0.581-0.581 0.581h-31.398c-0.315 0-0.581-0.266-0.581-0.581v-1.603c0-0.315 0.266-0.581 0.581-0.581h31.398c0.315 0 0.581 0.266 0.581 0.581v1.603z"></path>
<path fill="#444444" d="M7.5 17.567l2.54 1.856 2.542-1.856 2.543 1.856 2.542-1.856 2.543 1.856 2.543-1.856 2.542 1.856 2.543-1.857 2.546 1.856 2.956-2.155-0.82-1.125-2.135 1.557-2.546-1.856-2.543 1.856-2.542-1.856-2.543 1.856-2.543-1.856-2.542 1.856-2.543-1.856-2.541 1.856-2.54-1.857-2.542 1.857-2.131-1.556-0.821 1.124 2.953 2.156z"></path>
<path fill="#444444" d="M3.847 14.429h29.048c0.020-0.283 0.033-0.568 0.033-0.856 0-0.18-0.007-0.358-0.015-0.536-0.317-7.247-7.017-13.037-15.24-13.037s-14.923 5.789-15.24 13.037c-0.008 0.178-0.015 0.357-0.015 0.536 0 0.288 0.013 0.572 0.033 0.856h1.397zM17.672 1.392c7.439 0 13.527 5.176 13.848 11.645h-27.696c0.321-6.469 6.408-11.645 13.848-11.645z"></path>
<path fill="#444444" d="M18.6 6.98c0 0.513-0.416 0.928-0.928 0.928s-0.928-0.416-0.928-0.928c0-0.513 0.416-0.928 0.928-0.928s0.928 0.416 0.928 0.928z"></path>
<path fill="#444444" d="M14.888 4.679c0 0.513-0.416 0.928-0.928 0.928s-0.928-0.416-0.928-0.928c0-0.513 0.416-0.928 0.928-0.928s0.928 0.416 0.928 0.928z"></path>
<path fill="#444444" d="M22.313 4.679c0 0.513-0.416 0.928-0.928 0.928s-0.928-0.416-0.928-0.928c0-0.513 0.416-0.928 0.928-0.928s0.928 0.416 0.928 0.928z"></path>
</svg>
