<?xml version="1.0" encoding="utf-8"?>
<!-- Generated by IcoMoon.io -->
<!DOCTYPE svg PUBLIC "-//W3C//DTD SVG 1.1//EN" "http://www.w3.org/Graphics/SVG/1.1/DTD/svg11.dtd">
<svg version="1.1" xmlns="http://www.w3.org/2000/svg" xmlns:xlink="http://www.w3.org/1999/xlink" width="38" height="32" viewBox="0 0 38 32">
<path fill="#444444" d="M24.624 0.334c3.789-1.056 6.709 0.576 8.042 2.51 1.515-0.491 2.994-1.026 4.522-1.506-0.009 1.835-1.174 3.226-1.927 3.771 1.536 0.36 2.931-1.050 2.931-1.050-0.382 2.132-2.259 3.81-3.516 4.315-0.522 14.386-7.141 23.91-22.657 23.62-1.174 0 0.168 0-1.004 0-0.921 0-9.362-0.982-11.014-4.022 5.109 0.419 8.753-0.899 10.552-2.51-2.158-0.639-6.026-1.013-6.7-6.287 0.79 0.229 1.272 0.487 2.68 0.255-2.697-1.824-5.692-3.354-5.526-8.042 0.642 0.696 2.401 1.141 3.014 1.006-1.582-0.513-4.43-7.16-2.010-10.554 4.088 3.954 8.398 7.684 16.082 8.042 0.471-4.888 2.556-8.162 6.532-9.548z"></path>
</svg>
