<?xml version="1.0" encoding="utf-8"?>
<!-- Generated by IcoMoon.io -->
<!DOCTYPE svg PUBLIC "-//W3C//DTD SVG 1.1//EN" "http://www.w3.org/Graphics/SVG/1.1/DTD/svg11.dtd">
<svg version="1.1" xmlns="http://www.w3.org/2000/svg" xmlns:xlink="http://www.w3.org/1999/xlink" width="134" height="32" viewBox="0 0 134 32">
<path fill="#444444" d="M19.742 0h5.491l-0.862 32h-10.348l-1.407-13.212-1.407 13.212h-10.393l-0.816-32h5.446l0.454 26.467h0.59l3.404-26.467h5.401l3.494 26.467h0.545l0.408-26.467z"></path>
<path fill="#444444" d="M42.433 26.467v5.533h-14.886v-32h14.886v5.486h-9.44v7.725h7.534v5.486h-7.534v7.771h9.44z"></path>
<path fill="#444444" d="M57.635 26.467v5.533h-13.025v-32h5.446v26.467h7.579z"></path>
<path fill="#444444" d="M69.208 20.205l5.491-1.28v9.692c0 1.829-1.543 3.383-3.358 3.383h-8.17c-1.861 0-3.358-1.554-3.358-3.383v-25.234c0-1.875 1.498-3.383 3.358-3.383h8.169c1.815 0 3.358 1.508 3.358 3.383v6.491l-5.491 1.28v-5.669h-3.949v20.982h3.949v-6.262z"></path>
<path fill="#444444" d="M89.492 0c1.815 0 3.358 1.508 3.358 3.383v25.234c0 1.829-1.543 3.383-3.358 3.383h-8.17c-1.86 0-3.358-1.554-3.358-3.383v-25.234c0-1.874 1.498-3.383 3.358-3.383h8.17zM87.359 5.486h-3.949v20.982h3.949v-20.982z"></path>
<path fill="#444444" d="M110.684 0h5.401v32h-5.446v-15.726l-2.179 8.137h-5.31l-2.133-8.137v15.726h-5.446v-32h5.401l4.856 15.451 4.857-15.451z"></path>
<path fill="#444444" d="M133.693 26.467v5.533h-14.886v-32h14.886v5.486h-9.44v7.725h7.534v5.486h-7.534v7.771h9.44z"></path>
</svg>
