<?xml version="1.0" encoding="utf-8"?>
<!-- Generated by IcoMoon.io -->
<!DOCTYPE svg PUBLIC "-//W3C//DTD SVG 1.1//EN" "http://www.w3.org/Graphics/SVG/1.1/DTD/svg11.dtd">
<svg version="1.1" xmlns="http://www.w3.org/2000/svg" xmlns:xlink="http://www.w3.org/1999/xlink" width="118" height="32" viewBox="0 0 118 32">
<path fill="#444444" d="M13.47 6.876c3.087-1.044 3.322-4.91 0.279-4.91-0.838 0-1.838 0.588-2.528 1.793l-4.116 7.114c-0.191 0.338-0.382 0.617-0.588 0.867-1.058-1.455-0.75-3.63 0.735-4.586l-0.617-0.779c-3.204 2.043-2.264 7.937 3.087 7.937 4.572 0 6.688-5.482 3.748-7.437zM9.692 13.138c-0.911 0-1.632-0.206-2.205-0.529 0.265-0.309 0.529-0.691 0.764-1.088l2.572-4.454 0.412 0.044c3.586 0.75 2.161 6.027-1.543 6.027zM11.338 6.17l1.235-2.116c1.117-1.925 2.543-0.794 1.779 0.646-0.588 1.102-1.455 1.441-3.013 1.47z"></path>
<path fill="#444444" d="M26.4 11.818c-0.254 0.906 0.231 1.643 1.268 1.643 0.617 0 1.382-0.397 2.116-1 0.074 0.588 0.544 1 1.323 1 0.814 0 1.707-0.562 2.577-1.353-0.169 0.825 0.218 1.353 0.971 1.353 0.838 0 1.779-0.764 2.513-1.47-0.147 0.823 0.338 1.47 1.308 1.47 1.264 0 2.719-1.352 3.983-2.822-0.010-0.020-0.028-0.041-0.041-0.061 0.845-0.982 1.59-2.026 2.123-2.732-0.603 1.588-0.279 4.439-1.735 4.439-0.514 0-0.72-0.559-0.72-0.559l-0.956 0.5c0 0 0.279 1.235 1.675 1.235 0.147 0 0.279-0.015 0.426-0.029 0.015 0 0.029-0.014 0.044-0.014 1.123-0.148 2.237-0.832 3.202-1.703 0.023 1.006 0.804 1.746 2.074 1.746 1.734 0 3.454-1.352 4.719-2.822-0.103-0.206-0.368-0.441-0.573-0.529l-0.103 0.118c-1.102 1.278-2.513 2.293-3.586 2.293-0.941 0-1.499-0.588-0.794-1.823l0.147-0.265c0.985 0.412 2.837 0.22 3.983-1.764l0.22-0.382c0.823-1.411 0.029-2.47-1.22-2.47-1.235 0-2.22 0.647-2.866 1.764l-1.484 2.547c-0.014-0.005-0.029-0.015-0.042-0.019l-0.103 0.118c-0.559 0.661-1.235 1.249-1.837 1.661 0.485-1.455 0.382-3.689 1.323-5.644l-1.146-0.617c-0.632 0.867-2.014 2.867-3.395 4.483 0.013 0.019 0.030 0.037 0.044 0.056l-0.054 0.062c-1.102 1.278-2.175 2.293-2.852 2.293-0.338 0-0.529-0.235-0.177-0.838l3.263-5.718h-1.529l-2.719 4.748c-1.161 1.058-2.058 1.646-2.352 1.514-0.382-0.162 0-0.735 0.191-1.058l2.984-5.203h-1.529l-2.433 4.21c-0.039-0.024-0.079-0.050-0.116-0.065l-0.103 0.118c-1.102 1.278-2.175 2.293-2.852 2.293-0.338 0-0.529-0.235-0.177-0.838l2.47-4.322h-0.867c0.059-0.647-0.603-1.544-1.602-1.544-0.823 0-1.97 0.647-2.616 1.764l-1.55 2.675c-0.079-0.061-0.159-0.115-0.233-0.147l-0.103 0.118c-1.102 1.278-2.513 2.293-3.586 2.293-0.941 0-1.499-0.588-0.794-1.823l1.573-2.734c0.882-1.514 2.44-1.264 1.528 0.323l-0.22 0.382h1.249l0.22-0.382c0.823-1.411 0.029-2.47-1.22-2.47-1.235 0-2.22 0.647-2.866 1.764l-1.52 2.607c-0.048-0.031-0.095-0.059-0.14-0.079l-0.103 0.118c-1.102 1.278-2.513 2.293-3.586 2.293-0.941 0-1.499-0.588-0.794-1.823l0.147-0.265c0.985 0.412 2.837 0.22 3.983-1.764l0.22-0.382c0.823-1.411 0.029-2.47-1.22-2.47-1.235 0-2.22 0.647-2.866 1.764l-1.602 2.748c-0.956 1.632-0.132 3.131 1.675 3.131 1.347 0 2.683-0.816 3.806-1.868-0.040 1.067 0.752 1.868 2.072 1.868 1.248 0.002 2.488-0.699 3.557-1.64zM49.789 7.964c0.882-1.514 2.44-1.264 1.528 0.323l-0.22 0.382c-0.735 1.249-1.72 1.22-2.293 1.014l0.985-1.719zM27.947 11.683l2.131-3.719c0.823-1.426 2.455-1.058 1.705 0.323l-1.191 2.087c-0.926 1.455-1.838 2.146-2.469 2.146-0.338 0-0.529-0.235-0.177-0.838zM18.199 7.964c0.882-1.514 2.44-1.264 1.528 0.323l-0.22 0.382c-0.735 1.249-1.72 1.22-2.293 1.014l0.985-1.719z"></path>
<path fill="#444444" d="M70.026 13.461c1.735 0 3.454-1.352 4.718-2.822-0.103-0.206-0.367-0.441-0.573-0.529l-0.103 0.118c-1.102 1.278-2.513 2.293-3.586 2.293-0.941 0-1.499-0.588-0.794-1.823l0.147-0.265c0.985 0.412 2.837 0.22 3.983-1.764l0.22-0.382c0.823-1.411 0.029-2.47-1.22-2.47-1.234 0-2.219 0.647-2.866 1.764l-1.489 2.554c-0.015-0.008-0.031-0.019-0.046-0.026l-0.103 0.118c-1.102 1.278-2.175 2.293-2.851 2.293-0.338 0-0.529-0.235-0.177-0.838l2.205-3.866c0.662-1.161 0.029-1.999-0.823-1.999-0.662 0-1.367 0.368-2.131 1.161l2.44-4.248h-1.529l-4.312 7.48c-0.060-0.042-0.12-0.077-0.175-0.101l-0.103 0.118c-1.102 1.278-2.175 2.293-2.852 2.293-0.338 0-0.529-0.235-0.177-0.838l3.278-5.718h1.249l0.441-0.735h-1.264l1.441-2.499h-1.529l-1.441 2.499h-1.382l-0.441 0.735h1.396l-3.072 5.322c-0.647 1.132-0.191 2.175 1.044 2.175 0.76 0 1.588-0.49 2.403-1.199l-0.606 1.052h1.544l2.322-4.042c2.352-2.954 3.395-2.572 2.734-1.441l-1.984 3.455c-0.647 1.132-0.191 2.175 1.044 2.175 0.929 0 1.96-0.731 2.944-1.701 0.045 0.983 0.823 1.701 2.074 1.701zM71.261 7.964c0.882-1.514 2.44-1.264 1.529 0.323l-0.22 0.382c-0.735 1.249-1.72 1.22-2.293 1.014l0.985-1.719z"></path>
<path fill="#444444" d="M116.385 10.11l-0.103 0.118c-1.102 1.278-2.175 2.293-2.851 2.293-0.338 0-0.529-0.235-0.177-0.838l5.174-8.952h-1.529l-2.249 3.881c-0.264-0.426-0.764-0.794-1.396-0.794-0.823 0-1.97 0.647-2.617 1.764l-1.496 2.582c-0.032-0.019-0.065-0.041-0.096-0.054l-0.103 0.118c-1.102 1.278-2.175 2.293-2.851 2.293-0.338 0-0.529-0.235-0.177-0.838l2.205-3.866c0.662-1.161 0.029-1.999-0.823-1.999-0.662 0-1.352 0.353-2.117 1.147l0.574-1h-1.529l-2.443 4.227c-0.050-0.033-0.099-0.062-0.145-0.082l-0.103 0.118c-1.102 1.278-2.175 2.293-2.851 2.293-0.338 0-0.529-0.235-0.177-0.838l2.469-4.322h-0.867c0.059-0.647-0.603-1.544-1.602-1.544-0.823 0-1.97 0.647-2.617 1.764l-1.478 2.551-0.083 0.095c-1.102 1.278-2.175 2.293-2.851 2.293-0.338 0-0.529-0.235-0.177-0.838l1.528-2.675c0.529-0.926 0.279-1.47-0.22-2.073l-0.852-1.029c-0.22-0.279-0.22-0.588 0.088-0.882l-0.794-0.867c-0.867 0.779-0.941 1.646-0.397 2.352l0.133 0.177c-0.676 0.956-1.588 2.249-2.587 3.425 0.030 0.044 0.066 0.087 0.104 0.13-1.26 1.448-2.33 2.385-3.532 2.898l1.94-3.322h-1.528l-0.162 0.265c-0.809 1.426-1.735 2.44-2.925 2.44-1.044 0-1.234-1.044-0.323-2.602l0.426-0.75c0.279 0.044 0.559 0.074 0.867 0.074 5.438 0 8.070-7.276 3.278-7.276-0.838 0-1.838 0.588-2.528 1.793l-2.381 4.101c-0.897-0.47-1.367-1.323-1.367-2.175 0-0.705 0.324-1.411 0.985-1.925l-0.5-0.897c-1.087 0.779-1.572 1.823-1.572 2.852 0 1.22 0.691 2.396 1.925 3.043l-0.456 0.794c-1.073 1.852-0.882 3.91 1.279 3.91 0.647 0 1.191-0.191 1.661-0.485l-0.397 0.691c-2.073 0.632-3.351 1.47-3.351 2.616 0 1.47 2.249 1.779 3.351-0.103l1.176-2.014c1.587-0.5 3.145-1.587 4.821-3.528-0.024-0.047-0.058-0.096-0.095-0.144 0.679-0.798 1.255-1.567 2.406-3.134l0.206 0.25c0.191 0.25 0.265 0.559 0.088 0.867l-1.617 2.806c-0.647 1.132-0.191 2.175 1.044 2.175 0.769 0 1.608-0.501 2.432-1.224-0.018 0.703 0.463 1.224 1.335 1.224 0.617 0 1.382-0.397 2.116-1 0.074 0.588 0.544 1 1.323 1 0.732 0 1.528-0.455 2.314-1.123l-0.563 0.975h1.543l2.337-4.072c2.337-2.925 3.381-2.543 2.719-1.411l-1.984 3.455c-0.647 1.132-0.191 2.175 1.044 2.175 0.813 0 1.703-0.559 2.572-1.349-0.081 0.766 0.405 1.349 1.328 1.349 0.617 0 1.382-0.397 2.116-1 0.074 0.588 0.544 1 1.323 1 1.264 0 2.719-1.352 3.983-2.822-0.103-0.206-0.368-0.441-0.574-0.529zM84.962 4.407c0.456-0.779 0.956-1.117 1.382-1.117 2.426 0 0.72 4.939-3.278 4.939h-0.309l2.205-3.822zM81.714 15.93c-0.323 0.573-0.838 0.485-0.838 0.074 0-0.397 0.353-0.852 1.529-1.308l-0.691 1.235zM97.712 10.374c-0.926 1.455-1.838 2.146-2.47 2.146-0.338 0-0.529-0.235-0.177-0.838l2.131-3.719c0.823-1.426 2.455-1.058 1.705 0.323l-1.19 2.088zM112.505 10.286c-0.926 1.514-1.867 2.234-2.513 2.234-0.338 0-0.529-0.235-0.177-0.838l2.131-3.719c0.823-1.426 2.455-1.058 1.705 0.323h0.014l-1.161 2z"></path>
<path fill="#444444" d="M65.316 24.62l-0.103 0.118c-1.102 1.279-2.175 2.293-2.852 2.293-0.338 0-0.529-0.235-0.177-0.838l2.205-3.866c0.661-1.161 0.029-1.999-0.823-1.999-0.661 0-1.352 0.353-2.116 1.147l0.573-0.999h-1.529l-2.464 4.262c-0.066-0.048-0.133-0.091-0.195-0.117l-0.103 0.118c-0.691 0.749-1.544 1.117-2.308 1.132l1.441-2.484c0.926-1.603 0.073-3.116-1.367-3.116-1.176 0-2.087 0.47-2.969 1.999l-0.75 1.308-0.655 1.121c-0.047-0.031-0.094-0.059-0.138-0.078l-0.103 0.118c-1.264 1.455-2.337 2.395-3.542 2.91l4.189-7.173h-1.528l-2.705 4.704c-1.176 1.087-2.087 1.69-2.381 1.558-0.382-0.161 0-0.735 0.191-1.058l2.984-5.203h-1.529l-2.439 4.22c-0.046-0.029-0.091-0.057-0.133-0.075l-0.103 0.118c-1.102 1.279-2.175 2.293-2.852 2.293-0.338 0-0.529-0.235-0.177-0.838l2.205-3.866c0.661-1.161 0.029-1.999-0.823-1.999-0.661 0-1.352 0.353-2.116 1.147l0.573-0.999h-1.529l-2.443 4.226c-0.050-0.033-0.099-0.062-0.145-0.082l-0.103 0.118c-1.102 1.279-2.175 2.293-2.852 2.293-0.338 0-0.529-0.235-0.177-0.838l2.47-4.321h-0.867c0.059-0.647-0.603-1.544-1.602-1.544-0.823 0-1.97 0.647-2.616 1.764l-1.579 2.725c-0.104-0.095-0.225-0.168-0.335-0.198l-0.103 0.118c-1.102 1.279-2.455 2.293-3.969 2.293-1.044 0-1.675-1.044-0.764-2.602l0.426-0.75c0.279 0.044 0.559 0.074 0.867 0.074 1.632 0 3.484-0.838 4.689-2.94 0.426-0.749 0.617-1.455 0.617-2.058 0-1.382-0.897-2.278-2.028-2.278-0.838 0-1.838 0.588-2.528 1.793l-2.381 4.101c-0.897-0.47-1.367-1.323-1.367-2.175 0-0.705 0.323-1.411 0.985-1.925l-0.5-0.897c-1.088 0.779-1.573 1.822-1.573 2.852 0 1.22 0.691 2.396 1.925 3.043l-0.455 0.794c-1.073 1.852-0.441 3.91 1.72 3.91 1.709 0 2.964-0.761 4.018-1.762-0.333 0.96 0.151 1.762 1.233 1.762 0.617 0 1.382-0.397 2.116-0.999 0.074 0.588 0.544 0.999 1.323 0.999 0.732 0 1.528-0.455 2.314-1.122l-0.564 0.975h1.544l2.337-4.072c2.337-2.925 3.381-2.543 2.719-1.412l-1.984 3.453c-0.647 1.132-0.191 2.175 1.044 2.175 0.823 0 1.726-0.574 2.605-1.38-0.183 0.841 0.205 1.38 0.967 1.38 0.735 0 1.573-0.617 2.264-1.235l-0.838 1.441c-2.073 0.617-3.366 1.47-3.366 2.616 0 1.47 2.249 1.779 3.351-0.103l1.176-2.014c1.278-0.402 2.538-1.195 3.854-2.497-0.211 2.135 2.633 2.622 4.347 0.454h0.338c0.558 0 1.314-0.211 1.996-0.586l-1.027 1.777h1.544l2.337-4.072c2.337-2.925 3.381-2.543 2.719-1.412l-1.984 3.455c-0.647 1.132-0.191 2.175 1.044 2.175 1.264 0 2.719-1.352 3.983-2.822-0.103-0.206-0.368-0.441-0.574-0.529zM27.273 18.917c0.455-0.779 0.956-1.117 1.382-1.117 0.573 0 0.838 0.382 0.838 0.941 0 1.426-1.734 3.998-4.116 3.998h-0.309l2.205-3.822zM32.655 24.884c-0.926 1.455-1.838 2.146-2.47 2.146-0.338 0-0.529-0.235-0.177-0.838l2.131-3.719c0.823-1.426 2.455-1.058 1.705 0.324l-1.19 2.087zM44.284 30.44c-0.324 0.574-0.838 0.485-0.838 0.074 0-0.397 0.368-0.852 1.543-1.308l-0.705 1.234zM54.573 24.723h-0.074c-0.5 0-0.897 0.412-0.897 0.912 0 0.191 0.059 0.367 0.147 0.514l-0.014 0.029c-0.72 1.235-2.47 0.999-1.558-0.588l1.161-2.014 0.735-1.249c1.073-1.823 2.543-1.102 1.617 0.485l-1.117 1.911z"></path>
<path fill="#444444" d="M100.748 25.149c-0.088-0.235-0.353-0.47-0.573-0.529l-0.103 0.118c-0.559 0.661-1.235 1.249-1.838 1.661 0.485-1.455 0.382-3.689 1.323-5.644l-1.147-0.617c-0.632 0.867-2.014 2.867-3.395 4.483 0.002 0.004 0.006 0.007 0.008 0.010-0.006-0.003-0.013-0.008-0.019-0.010l-0.103 0.118c-1.102 1.279-2.175 2.293-2.852 2.293-0.338 0-0.661-0.338-0.661-1.029v-0.632c1.073 0.132 2.205-0.574 2.925-1.823l0.412-0.705c1.426-2.44-0.897-3.249-2.455-1.822l2.175-3.778h-1.529l-4.359 7.564c-0.093-0.079-0.191-0.147-0.28-0.185l-0.103 0.118c-1.102 1.279-2.513 2.293-3.586 2.293-0.941 0-1.499-0.588-0.794-1.823l1.573-2.734c0.882-1.514 2.44-1.264 1.529 0.324l-0.22 0.382h1.249l0.22-0.382c0.823-1.411 0.029-2.47-1.22-2.47-1.234 0-2.22 0.647-2.866 1.764l-1.504 2.581c-0.032-0.019-0.065-0.041-0.095-0.054l-0.103 0.118c-1.102 1.279-2.175 2.293-2.851 2.293-0.338 0-0.529-0.235-0.177-0.838l3.263-5.718h-1.529l-2.719 4.748c-1.162 1.058-2.058 1.646-2.352 1.514-0.382-0.161 0-0.735 0.191-1.058l2.984-5.203h-1.529l-2.969 5.137c-0.331 0.301-0.669 0.57-0.987 0.787 0.485-1.455 0.382-3.689 1.323-5.644l-1.147-0.617c-0.632 0.867-4.16 5.542-5.542 7.159 0.132 0.191 0.353 0.382 0.574 0.529 0.867-1 3.777-4.748 4.322-5.468-0.603 1.587-0.279 4.439-1.735 4.439-0.514 0-0.72-0.559-0.72-0.559l-0.955 0.5c0 0 0.279 1.235 1.675 1.235 0.147 0 0.279-0.015 0.426-0.029 0.014 0 0.029-0.015 0.044-0.015 0.776-0.103 1.548-0.46 2.27-0.959-0.005 0.622 0.37 1.003 1.011 1.003 0.838 0 1.778-0.764 2.513-1.47-0.147 0.823 0.338 1.47 1.308 1.47 0.949 0 2.007-0.763 3.010-1.765 0.014 1.015 0.796 1.765 2.074 1.765 1.241 0 2.473-0.693 3.537-1.625l-0.852 1.478h1.543l1.749-3.043v1.22c0 1.308 0.25 1.97 1.484 1.97 1.264 0 2.719-1.352 3.984-2.822-0.002-0.004-0.007-0.009-0.009-0.014 0.006 0.005 0.013 0.009 0.019 0.014 0.867-0.999 1.632-2.073 2.175-2.793-0.603 1.587-0.279 4.439-1.734 4.439-0.514 0-0.72-0.559-0.72-0.559l-0.955 0.5c0 0 0.279 1.235 1.675 1.235 0.147 0 0.279-0.015 0.426-0.029 0.014 0 0.029-0.015 0.044-0.015 1.558-0.206 3.101-1.441 4.247-2.778zM90.595 23.944l0.441-0.764c1.764-2.455 2.969-1.779 2.426-0.852l-0.735 1.264c-0.456 0.794-1.794 1.352-2.132 0.353z"></path>
<path fill="#444444" d="M100.688 26.192c-0.499 0-0.882 0.397-0.882 0.897s0.382 0.882 0.882 0.882c0.5 0 0.897-0.382 0.897-0.882s-0.397-0.897-0.897-0.897z"></path>
<path fill="#444444" d="M100.762 25.59h1.543l4.792-8.349h-1.528z"></path>
<path fill="#444444" d="M2.318 2.781c0 0.118-0.023 0.237-0.068 0.354s-0.114 0.225-0.204 0.321c-0.091 0.096-0.202 0.172-0.334 0.232s-0.28 0.089-0.443 0.089c-0.182 0-0.357-0.034-0.525-0.102s-0.311-0.166-0.429-0.293c-0.1-0.118-0.177-0.259-0.232-0.423s-0.082-0.336-0.082-0.518c0-0.345 0.061-0.663 0.184-0.954s0.297-0.55 0.525-0.777c0.1-0.1 0.213-0.193 0.341-0.28s0.248-0.159 0.362-0.218c0.113-0.059 0.211-0.106 0.293-0.143s0.132-0.059 0.15-0.068l0.545 0.804c-0.1 0.036-0.211 0.084-0.334 0.143s-0.239 0.132-0.347 0.218c-0.109 0.086-0.2 0.189-0.273 0.307s-0.114 0.255-0.123 0.409c0.264 0 0.495 0.077 0.695 0.232s0.3 0.377 0.3 0.668zM5.488 2.781c0 0.118-0.023 0.237-0.068 0.354s-0.114 0.225-0.204 0.32c-0.091 0.096-0.202 0.173-0.334 0.232s-0.28 0.089-0.443 0.089c-0.182 0-0.357-0.034-0.525-0.102s-0.311-0.166-0.429-0.293c-0.1-0.118-0.177-0.259-0.232-0.423s-0.082-0.336-0.082-0.518c0-0.345 0.061-0.663 0.184-0.954s0.297-0.55 0.525-0.777c0.1-0.1 0.213-0.193 0.341-0.279s0.247-0.159 0.361-0.218c0.114-0.059 0.211-0.107 0.293-0.143s0.132-0.059 0.15-0.068l0.545 0.804c-0.1 0.036-0.211 0.084-0.334 0.143s-0.239 0.132-0.348 0.218-0.2 0.189-0.272 0.307c-0.073 0.118-0.114 0.254-0.123 0.409 0.264 0 0.495 0.077 0.695 0.232s0.3 0.377 0.3 0.667z"></path>
<path fill="#444444" d="M112.363 26.538c0-0.119 0.023-0.237 0.068-0.355s0.114-0.225 0.205-0.32c0.091-0.096 0.202-0.173 0.334-0.232s0.28-0.089 0.443-0.089c0.182 0 0.357 0.034 0.525 0.102s0.311 0.166 0.429 0.294c0.1 0.118 0.177 0.259 0.232 0.422s0.082 0.336 0.082 0.518c0 0.345-0.061 0.663-0.184 0.954s-0.297 0.55-0.525 0.777c-0.1 0.1-0.213 0.193-0.341 0.279-0.127 0.087-0.247 0.159-0.361 0.218s-0.211 0.107-0.293 0.143-0.131 0.059-0.15 0.069l-0.545-0.805c0.1-0.036 0.211-0.084 0.334-0.143s0.239-0.132 0.348-0.218c0.109-0.087 0.2-0.189 0.272-0.307s0.114-0.254 0.123-0.409c-0.264 0-0.495-0.077-0.695-0.232s-0.299-0.377-0.299-0.667zM109.192 26.538c0-0.119 0.023-0.237 0.069-0.355s0.113-0.225 0.204-0.32 0.203-0.173 0.334-0.232c0.132-0.059 0.279-0.089 0.443-0.089 0.182 0 0.357 0.034 0.525 0.102s0.311 0.166 0.429 0.294c0.1 0.118 0.177 0.259 0.232 0.422s0.081 0.336 0.081 0.518c0 0.345-0.061 0.663-0.184 0.954s-0.297 0.55-0.525 0.777c-0.1 0.1-0.213 0.193-0.341 0.279s-0.247 0.159-0.361 0.218c-0.113 0.059-0.211 0.107-0.293 0.143s-0.132 0.059-0.15 0.069l-0.546-0.805c0.1-0.036 0.212-0.084 0.334-0.143s0.239-0.132 0.347-0.218c0.109-0.087 0.2-0.189 0.273-0.307s0.114-0.254 0.123-0.409c-0.263 0-0.495-0.077-0.696-0.232-0.199-0.154-0.299-0.377-0.299-0.667z"></path>
</svg>
