<?xml version="1.0" encoding="utf-8"?>
<!-- Generated by IcoMoon.io -->
<!DOCTYPE svg PUBLIC "-//W3C//DTD SVG 1.1//EN" "http://www.w3.org/Graphics/SVG/1.1/DTD/svg11.dtd">
<svg version="1.1" xmlns="http://www.w3.org/2000/svg" xmlns:xlink="http://www.w3.org/1999/xlink" width="283" height="32" viewBox="0 0 283 32">
<path fill="#444444" d="M70.839 15.999l-0.224 0.255c-1.498 1.625-3.346 2.422-5.004 2.454l3.124-5.386c2.008-3.473 0.159-6.756-2.964-6.756-2.55 0-4.526 1.019-6.438 4.335l-1.625 2.836-1.358 2.322-0.17 0.196c-2.39 2.773-4.716 4.971-6.183 4.971-0.733 0-1.148-0.51-0.382-1.816l7.107-12.398h2.709l0.956-1.594h-2.741l3.124-5.416h-3.315l-3.124 5.418h-2.996l-0.956 1.594h3.027l-6.661 11.537c-1.402 2.454-0.414 4.718 2.262 4.718 1.925 0 4.053-1.449 6.1-3.414-0.006 4.224 5.864 5.049 9.452 0.512h0.733c1.976 0 5.099-1.211 6.789-3.219-0.221-0.447-0.795-0.956-1.241-1.148zM63.764 16.222h-0.159c-1.084 0-1.944 0.892-1.944 1.977 0 0.413 0.127 0.796 0.319 1.116l-0.032 0.063c-1.562 2.678-5.354 2.167-3.378-1.274l2.517-4.367 1.594-2.709c2.327-3.952 5.513-2.391 3.506 1.052l-2.422 4.142z"></path>
<path fill="#444444" d="M116.726 15.999l-0.224 0.255c-2.391 2.773-5.45 4.971-7.776 4.971-2.040 0-3.251-1.274-1.721-3.952l0.319-0.574c2.135 0.892 6.151 0.478 8.637-3.824l0.478-0.829c1.784-3.059 0.064-5.354-2.645-5.354-2.678 0-4.813 1.402-6.215 3.824l-3.217 5.518-0.192 0.219c-2.391 2.773-4.716 4.971-6.183 4.971-0.733 0-1.148-0.51-0.383-1.816l4.782-8.38c1.433-2.518 0.064-4.335-1.785-4.335-1.433 0-2.964 0.797-4.621 2.517l5.291-9.209h-3.315l-9.247 16.041-0.186 0.213c-2.39 2.773-4.716 4.971-6.183 4.971-0.733 0-1.148-0.51-0.382-1.816l7.107-12.398h2.709l0.956-1.594h-2.741l3.125-5.416h-3.315l-3.124 5.418h-2.995l-0.956 1.594h3.027l-6.661 11.537c-1.402 2.454-0.414 4.718 2.262 4.718 1.343 0 2.786-0.707 4.231-1.801l-0.853 1.481h3.346l5.035-8.763c5.099-6.407 7.362-5.578 5.927-3.124l-4.302 7.49c-1.402 2.454-0.414 4.718 2.262 4.718 1.972 0 4.159-1.522 6.251-3.561 0.159 2.064 1.83 3.561 4.487 3.561 3.76 0 7.489-2.932 10.231-6.12-0.221-0.448-0.795-0.957-1.241-1.149zM110.416 11.346c1.913-3.282 5.291-2.741 3.315 0.702l-0.478 0.829c-1.593 2.709-3.729 2.645-4.972 2.199l2.135-3.73z"></path>
<path fill="#444444" d="M237.564 15.999l-0.222 0.255c-1.212 1.433-2.678 2.709-3.985 3.601 1.052-3.155 0.829-7.999 2.869-12.238l-2.486-1.338c-1.37 1.881-4.366 6.215-7.362 9.721 0 0 0.001 0.001 0.001 0.001l-0.222 0.253c-2.39 2.773-4.716 4.971-6.183 4.971-0.733 0-1.147-0.51-0.382-1.816l7.075-12.398h-3.314l-5.896 10.294c-2.517 2.293-4.462 3.57-5.098 3.282-0.829-0.35 0-1.593 0.414-2.293l6.47-11.282h-3.314l-5.196 8.992-0.219 0.251c-1.499 1.625-3.346 2.422-5.004 2.454l3.123-5.386c2.008-3.473 0.161-6.756-2.964-6.756-2.549 0-4.525 1.019-6.437 4.335l-1.626 2.836-1.357 2.321-0.172 0.197c-2.39 2.773-5.45 4.971-7.776 4.971-2.040 0-3.252-1.274-1.721-3.952l0.319-0.574c2.135 0.892 6.151 0.478 8.637-3.824l0.478-0.829c1.784-3.059 0.064-5.354-2.645-5.354-2.678 0-4.813 1.402-6.215 3.824l-3.214 5.517-0.194 0.22c-2.741 3.156-5.098 5.194-7.713 6.309l7.426-12.684h-1.945c0-1.37-1.402-3.187-3.473-3.187-1.784 0-4.27 1.402-5.674 3.824l-3.178 5.487c-0.002-0.001-0.006-0.003-0.008-0.004l-0.222 0.255c-2.39 2.773-4.718 4.971-6.183 4.971-0.733 0-1.147-0.51-0.383-1.816l3.315-5.801c1.147-2.008 0.605-3.187-0.479-4.494l-1.849-2.231c-0.478-0.605-0.478-1.275 0.191-1.913l-1.721-1.881c-1.881 1.689-2.040 3.57-0.86 5.099l0.287 0.383c-1.465 2.072-3.441 4.876-5.609 7.426 0 0 0.001 0.001 0.001 0.001l-0.221 0.253c-1.499 1.625-3.346 2.422-5.004 2.454l3.123-5.386c2.008-3.473 0.161-6.756-2.964-6.756-2.549 0-4.525 1.019-6.437 4.335l-1.626 2.836-1.359 2.326-0.168 0.193c-2.742 3.156-5.099 5.194-7.713 6.309l7.426-12.684h-1.944c0-1.37-1.402-3.187-3.475-3.187-1.784 0-4.27 1.402-5.673 3.824l-4.653 8.032c-1.402 2.454-0.414 4.718 2.262 4.718 0.924 0 2.040-0.415 3.156-1.116l-0.924 1.561c-4.462 1.37-7.267 3.187-7.267 5.673 0 3.188 4.876 3.856 7.267-0.222l2.518-4.367c2.652-0.827 5.25-2.386 7.947-4.961-0.024 4.242 5.859 5.075 9.452 0.531h0.733c1.976 0 5.099-1.211 6.789-3.219 0 0-0.001-0.001-0.001-0.001 1.593-1.848 2.836-3.505 5.48-7.105l0.446 0.541c0.414 0.542 0.574 1.211 0.191 1.881l-3.506 6.088c-1.404 2.454-0.415 4.718 2.262 4.718 1.68 0 3.515-1.104 5.315-2.69-0.054 1.54 0.973 2.69 2.875 2.69 0.924 0 2.040-0.415 3.156-1.116l-0.924 1.561c-4.462 1.37-7.266 3.187-7.266 5.673 0 3.188 4.876 3.856 7.266-0.222l2.517-4.367c2.701-0.842 5.346-2.451 8.097-5.11 0.148 2.075 1.823 3.582 4.491 3.582 2.699 0 5.378-1.513 7.691-3.543-0.131 4.339 5.829 5.226 9.454 0.642h0.733c1.038 0 2.389-0.341 3.685-0.948-0.891 2.303-0.070 3.85 1.826 3.85 1.816 0 3.855-1.658 5.449-3.188-0.319 1.784 0.733 3.188 2.836 3.188 2.742 0 5.896-2.932 8.638-6.12 0 0-0.001-0.001-0.001-0.001 1.88-2.167 3.536-4.493 4.716-6.054-1.307 3.441-0.607 9.624-3.761 9.624-1.116 0-1.561-1.211-1.561-1.211l-2.072 1.084c0 0 0.605 2.679 3.633 2.679 0.319 0 0.607-0.032 0.924-0.065 0.032 0 0.064-0.031 0.096-0.031 3.378-0.446 6.724-3.123 9.21-6.024-0.193-0.509-0.767-1.019-1.244-1.147zM189.987 11.346c1.913-3.282 5.29-2.741 3.314 0.702l-0.478 0.829c-1.594 2.709-3.729 2.645-4.972 2.199l2.136-3.73zM126.699 28.618c-0.702 1.243-1.816 1.053-1.816 0.16 0-0.86 0.797-1.849 3.314-2.836l-1.498 2.675zM128.229 21.226c-0.733 0-1.148-0.51-0.382-1.816l4.621-8.064c1.784-3.092 5.323-2.295 3.697 0.702l-2.517 4.398c-2.009 3.22-4.017 4.781-5.419 4.781zM148.592 16.222h-0.161c-1.084 0-1.944 0.892-1.944 1.977 0 0.413 0.127 0.796 0.319 1.116l-0.032 0.063c-1.561 2.678-5.354 2.167-3.378-1.274l2.517-4.367 1.593-2.709c2.328-3.952 5.513-2.391 3.507 1.052l-2.421 4.142zM169.432 28.618c-0.702 1.243-1.817 1.053-1.817 0.16 0-0.86 0.797-1.849 3.315-2.836l-1.498 2.675zM170.961 21.226c-0.733 0-1.147-0.51-0.383-1.816l4.622-8.064c1.784-3.092 5.322-2.295 3.697 0.702l-2.518 4.398c-2.008 3.22-4.017 4.781-5.418 4.781zM203.658 16.222h-0.161c-1.084 0-1.944 0.892-1.944 1.977 0 0.413 0.127 0.796 0.319 1.116l-0.032 0.063c-1.561 2.678-5.354 2.167-3.378-1.274l2.517-4.367 1.593-2.709c2.328-3.952 5.513-2.391 3.507 1.052l-2.421 4.142z"></path>
<path fill="#444444" d="M0 12.48h32.008v2.167h-32.008v-2.167z"></path>
<path fill="#444444" d="M251.263 12.48h32.009v2.167h-32.009v-2.167z"></path>
</svg>
