<?xml version="1.0" encoding="utf-8"?>
<!-- Generated by IcoMoon.io -->
<!DOCTYPE svg PUBLIC "-//W3C//DTD SVG 1.1//EN" "http://www.w3.org/Graphics/SVG/1.1/DTD/svg11.dtd">
<svg version="1.1" xmlns="http://www.w3.org/2000/svg" xmlns:xlink="http://www.w3.org/1999/xlink" width="184" height="32" viewBox="0 0 184 32">
<path fill="#444444" d="M17.831 8.716c-1.433-1.194-3.264-1.99-5.174-1.99-1.433 0-3.343 0.836-3.343 2.507 0 1.752 2.11 2.428 3.463 2.865l1.99 0.597c4.179 1.234 7.403 3.343 7.403 8.199 0 2.985-0.717 6.050-3.104 8.080-2.348 1.99-5.493 2.826-8.517 2.826-3.781 0-7.483-1.274-10.547-3.423l3.343-6.288c1.95 1.711 4.259 3.104 6.925 3.104 1.831 0 3.781-0.915 3.781-3.025 0-2.189-3.065-2.945-4.736-3.423-4.895-1.393-8.12-2.667-8.12-8.478 0-6.090 4.338-10.069 10.348-10.069 3.025 0 6.726 0.955 9.393 2.468l-3.105 6.050z"></path>
<path fill="#444444" d="M36.823 7.602v5.015h8.796v6.607h-8.796v5.173h9.274v6.607h-17.075v-30.010h17.075v6.607h-9.274z"></path>
<path fill="#444444" d="M51.894 0.995h11.065c8.358 0 15.244 6.567 15.244 15.005s-6.925 15.005-15.244 15.005h-11.065v-30.010zM59.695 24.398h1.751c4.657 0 8.637-2.547 8.637-8.398 0-5.373-3.542-8.398-8.557-8.398h-1.831v16.796z"></path>
<path fill="#444444" d="M115.031 15.443c0 9.711-6.965 16.557-16.597 16.557s-16.597-6.846-16.597-16.557c0-9.075 7.96-15.443 16.597-15.443s16.597 6.368 16.597 15.443zM89.956 15.482c0 5.174 3.821 8.955 8.478 8.955s8.478-3.781 8.478-8.955c0-4.139-3.821-7.92-8.478-7.92s-8.478 3.781-8.478 7.92z"></path>
<path fill="#444444" d="M119.188 0.995h7.801l14.289 18.348h0.079v-18.348h7.801v30.010h-7.801l-14.289-18.388h-0.079v18.388h-7.801v-30.010z"></path>
<path fill="#444444" d="M163.339 25.791l-2.069 5.214h-8.279l11.542-30.010h8.517l11.303 30.010h-8.318l-1.95-5.214h-10.746zM168.792 10.268h-0.080l-3.224 9.552h6.488l-3.184-9.552z"></path>
</svg>
